# xmcd CD database file
#
# Track frame offsets:
#	150
#	37525
#	59889
#	95968
#	120652
#	156008
#
# Disc length: 2414 seconds
#
# Revision: 0
# Processed by: cddbd v1.5.2PL0 Copyright (c) Steve Scherf et al.
# Submitted via: CDex 1.81
#
DISCID=4b096c06
DTITLE=Misc - Misc
DYEAR=2016
DGENRE=Jazz
TTITLE0=Misc - La fin
TTITLE1=Misc - Messenger
TTITLE2=Misc - Unlucky
TTITLE3=Misc - Respirer dans l'eau
TTITLE4=Misc - Les annees molles
TTITLE5=Misc - Overgrown
EXTD=YEAR: 2016
EXTT0=
EXTT1=
EXTT2=
EXTT3=
EXTT4=
EXTT5=
PLAYORDER=
